<mxfile host="app.diagrams.net" modified="2022-12-07T11:06:02.262Z" agent="5.0 (Windows NT 10.0; Win64; x64) AppleWebKit/537.36 (KHTML, like Gecko) Chrome/108.0.0.0 Safari/537.36" etag="7fXsZNceVFy6EYjaTLBo" version="20.6.0" type="github">
  <diagram id="OYLXwIgW5Plzkm6vZjWC" name="第 1 页">
    <mxGraphModel dx="1769" dy="1743" grid="1" gridSize="10" guides="1" tooltips="1" connect="1" arrows="1" fold="1" page="1" pageScale="1" pageWidth="827" pageHeight="1169" math="0" shadow="0">
      <root>
        <mxCell id="0" />
        <mxCell id="1" parent="0" />
        <mxCell id="q6uPWRvDd_Bx__9c443r-1" value="李园" style="ellipse;whiteSpace=wrap;html=1;aspect=fixed;" parent="1" vertex="1">
          <mxGeometry x="30" y="360" width="80" height="80" as="geometry" />
        </mxCell>
        <mxCell id="q6uPWRvDd_Bx__9c443r-17" value="" style="edgeStyle=orthogonalEdgeStyle;rounded=0;orthogonalLoop=1;jettySize=auto;html=1;" parent="1" source="q6uPWRvDd_Bx__9c443r-2" target="q6uPWRvDd_Bx__9c443r-1" edge="1">
          <mxGeometry relative="1" as="geometry" />
        </mxCell>
        <mxCell id="q6uPWRvDd_Bx__9c443r-2" value="桃园" style="ellipse;whiteSpace=wrap;html=1;aspect=fixed;" parent="1" vertex="1">
          <mxGeometry x="200" y="360" width="80" height="80" as="geometry" />
        </mxCell>
        <mxCell id="q6uPWRvDd_Bx__9c443r-7" value="二教" style="ellipse;whiteSpace=wrap;html=1;aspect=fixed;" parent="1" vertex="1">
          <mxGeometry x="30" y="-110" width="80" height="80" as="geometry" />
        </mxCell>
        <mxCell id="q6uPWRvDd_Bx__9c443r-8" value="一教" style="ellipse;whiteSpace=wrap;html=1;aspect=fixed;" parent="1" vertex="1">
          <mxGeometry x="30" y="100" width="80" height="80" as="geometry" />
        </mxCell>
        <mxCell id="q6uPWRvDd_Bx__9c443r-9" value="四食堂" style="ellipse;whiteSpace=wrap;html=1;aspect=fixed;" parent="1" vertex="1">
          <mxGeometry x="-160" y="-210" width="80" height="80" as="geometry" />
        </mxCell>
        <mxCell id="q6uPWRvDd_Bx__9c443r-10" value="三食堂" style="ellipse;whiteSpace=wrap;html=1;aspect=fixed;" parent="1" vertex="1">
          <mxGeometry x="390" y="-90" width="80" height="80" as="geometry" />
        </mxCell>
        <mxCell id="q6uPWRvDd_Bx__9c443r-11" value="二食堂" style="ellipse;whiteSpace=wrap;html=1;aspect=fixed;" parent="1" vertex="1">
          <mxGeometry x="440" y="360" width="80" height="80" as="geometry" />
        </mxCell>
        <mxCell id="q6uPWRvDd_Bx__9c443r-12" value="一食堂" style="ellipse;whiteSpace=wrap;html=1;aspect=fixed;" parent="1" vertex="1">
          <mxGeometry x="-90" y="240" width="80" height="80" as="geometry" />
        </mxCell>
        <mxCell id="q6uPWRvDd_Bx__9c443r-13" value="" style="endArrow=classic;startArrow=classic;html=1;rounded=0;exitX=1;exitY=0.5;exitDx=0;exitDy=0;" parent="1" source="q6uPWRvDd_Bx__9c443r-1" target="q6uPWRvDd_Bx__9c443r-2" edge="1">
          <mxGeometry width="50" height="50" relative="1" as="geometry">
            <mxPoint x="390" y="320" as="sourcePoint" />
            <mxPoint x="440" y="270" as="targetPoint" />
          </mxGeometry>
        </mxCell>
        <mxCell id="q6uPWRvDd_Bx__9c443r-14" value="200" style="edgeLabel;html=1;align=center;verticalAlign=middle;resizable=0;points=[];" parent="q6uPWRvDd_Bx__9c443r-13" vertex="1" connectable="0">
          <mxGeometry x="-0.27" y="-3" relative="1" as="geometry">
            <mxPoint x="17" y="-3" as="offset" />
          </mxGeometry>
        </mxCell>
        <mxCell id="q6uPWRvDd_Bx__9c443r-15" value="" style="endArrow=classic;startArrow=classic;html=1;rounded=0;entryX=0.5;entryY=1;entryDx=0;entryDy=0;" parent="1" source="q6uPWRvDd_Bx__9c443r-1" target="q6uPWRvDd_Bx__9c443r-12" edge="1">
          <mxGeometry width="50" height="50" relative="1" as="geometry">
            <mxPoint x="120" y="330" as="sourcePoint" />
            <mxPoint x="170" y="280" as="targetPoint" />
          </mxGeometry>
        </mxCell>
        <mxCell id="q6uPWRvDd_Bx__9c443r-16" value="200" style="edgeLabel;html=1;align=center;verticalAlign=middle;resizable=0;points=[];" parent="q6uPWRvDd_Bx__9c443r-15" vertex="1" connectable="0">
          <mxGeometry x="0.1714" y="-4" relative="1" as="geometry">
            <mxPoint x="-4" y="7" as="offset" />
          </mxGeometry>
        </mxCell>
        <mxCell id="q6uPWRvDd_Bx__9c443r-18" value="" style="endArrow=classic;startArrow=classic;html=1;rounded=0;exitX=1;exitY=0.5;exitDx=0;exitDy=0;" parent="1" source="q6uPWRvDd_Bx__9c443r-2" target="q6uPWRvDd_Bx__9c443r-11" edge="1">
          <mxGeometry width="50" height="50" relative="1" as="geometry">
            <mxPoint x="310" y="400" as="sourcePoint" />
            <mxPoint x="360" y="350" as="targetPoint" />
          </mxGeometry>
        </mxCell>
        <mxCell id="q6uPWRvDd_Bx__9c443r-19" value="400" style="edgeLabel;html=1;align=center;verticalAlign=middle;resizable=0;points=[];" parent="q6uPWRvDd_Bx__9c443r-18" vertex="1" connectable="0">
          <mxGeometry x="-0.125" y="2" relative="1" as="geometry">
            <mxPoint x="10" y="2" as="offset" />
          </mxGeometry>
        </mxCell>
        <mxCell id="q6uPWRvDd_Bx__9c443r-20" value="" style="endArrow=classic;startArrow=classic;html=1;rounded=0;entryX=0.5;entryY=1;entryDx=0;entryDy=0;exitX=0.5;exitY=0;exitDx=0;exitDy=0;" parent="1" source="q6uPWRvDd_Bx__9c443r-1" target="q6uPWRvDd_Bx__9c443r-8" edge="1">
          <mxGeometry width="50" height="50" relative="1" as="geometry">
            <mxPoint x="390" y="130" as="sourcePoint" />
            <mxPoint x="440" y="80" as="targetPoint" />
            <Array as="points" />
          </mxGeometry>
        </mxCell>
        <mxCell id="q6uPWRvDd_Bx__9c443r-21" value="1000" style="edgeLabel;html=1;align=center;verticalAlign=middle;resizable=0;points=[];" parent="q6uPWRvDd_Bx__9c443r-20" vertex="1" connectable="0">
          <mxGeometry x="0.0796" y="-2" relative="1" as="geometry">
            <mxPoint x="5" y="9" as="offset" />
          </mxGeometry>
        </mxCell>
        <mxCell id="q6uPWRvDd_Bx__9c443r-22" value="" style="endArrow=classic;startArrow=classic;html=1;rounded=0;" parent="1" source="q6uPWRvDd_Bx__9c443r-8" target="q6uPWRvDd_Bx__9c443r-7" edge="1">
          <mxGeometry width="50" height="50" relative="1" as="geometry">
            <mxPoint x="390" y="190" as="sourcePoint" />
            <mxPoint x="440" y="140" as="targetPoint" />
          </mxGeometry>
        </mxCell>
        <mxCell id="q6uPWRvDd_Bx__9c443r-23" value="500" style="edgeLabel;html=1;align=center;verticalAlign=middle;resizable=0;points=[];" parent="q6uPWRvDd_Bx__9c443r-22" vertex="1" connectable="0">
          <mxGeometry x="-0.1765" y="1" relative="1" as="geometry">
            <mxPoint x="1" y="-5" as="offset" />
          </mxGeometry>
        </mxCell>
        <mxCell id="q6uPWRvDd_Bx__9c443r-26" value="" style="endArrow=classic;startArrow=classic;html=1;rounded=0;entryX=0;entryY=1;entryDx=0;entryDy=0;" parent="1" source="q6uPWRvDd_Bx__9c443r-8" target="q6uPWRvDd_Bx__9c443r-10" edge="1">
          <mxGeometry width="50" height="50" relative="1" as="geometry">
            <mxPoint x="180" y="40" as="sourcePoint" />
            <mxPoint x="230" y="-10" as="targetPoint" />
          </mxGeometry>
        </mxCell>
        <mxCell id="q6uPWRvDd_Bx__9c443r-27" value="800" style="edgeLabel;html=1;align=center;verticalAlign=middle;resizable=0;points=[];" parent="q6uPWRvDd_Bx__9c443r-26" vertex="1" connectable="0">
          <mxGeometry x="0.1406" y="-3" relative="1" as="geometry">
            <mxPoint x="-8" y="9" as="offset" />
          </mxGeometry>
        </mxCell>
        <mxCell id="q6uPWRvDd_Bx__9c443r-28" value="" style="endArrow=classic;startArrow=classic;html=1;rounded=0;exitX=1;exitY=0.5;exitDx=0;exitDy=0;entryX=0;entryY=0.5;entryDx=0;entryDy=0;" parent="1" source="q6uPWRvDd_Bx__9c443r-9" target="q6uPWRvDd_Bx__9c443r-10" edge="1">
          <mxGeometry width="50" height="50" relative="1" as="geometry">
            <mxPoint x="60" y="-180" as="sourcePoint" />
            <mxPoint x="110" y="-230" as="targetPoint" />
          </mxGeometry>
        </mxCell>
        <mxCell id="q6uPWRvDd_Bx__9c443r-29" value="800" style="edgeLabel;html=1;align=center;verticalAlign=middle;resizable=0;points=[];" parent="q6uPWRvDd_Bx__9c443r-28" vertex="1" connectable="0">
          <mxGeometry x="-0.1527" y="3" relative="1" as="geometry">
            <mxPoint x="14" y="3" as="offset" />
          </mxGeometry>
        </mxCell>
        <mxCell id="q6uPWRvDd_Bx__9c443r-30" value="" style="endArrow=classic;startArrow=classic;html=1;rounded=0;entryX=0;entryY=1;entryDx=0;entryDy=0;exitX=0.5;exitY=0;exitDx=0;exitDy=0;" parent="1" source="q6uPWRvDd_Bx__9c443r-12" target="q6uPWRvDd_Bx__9c443r-8" edge="1">
          <mxGeometry width="50" height="50" relative="1" as="geometry">
            <mxPoint x="-70" y="220" as="sourcePoint" />
            <mxPoint x="-20" y="170" as="targetPoint" />
          </mxGeometry>
        </mxCell>
        <mxCell id="q6uPWRvDd_Bx__9c443r-31" value="600" style="edgeLabel;html=1;align=center;verticalAlign=middle;resizable=0;points=[];" parent="q6uPWRvDd_Bx__9c443r-30" vertex="1" connectable="0">
          <mxGeometry x="-0.3416" y="-2" relative="1" as="geometry">
            <mxPoint x="-6" y="-16" as="offset" />
          </mxGeometry>
        </mxCell>
        <mxCell id="q6uPWRvDd_Bx__9c443r-32" value="" style="endArrow=classic;startArrow=classic;html=1;rounded=0;exitX=0;exitY=0;exitDx=0;exitDy=0;entryX=0;entryY=1;entryDx=0;entryDy=0;" parent="1" source="q6uPWRvDd_Bx__9c443r-12" target="q6uPWRvDd_Bx__9c443r-7" edge="1">
          <mxGeometry width="50" height="50" relative="1" as="geometry">
            <mxPoint x="430" y="40" as="sourcePoint" />
            <mxPoint x="480" y="-10" as="targetPoint" />
          </mxGeometry>
        </mxCell>
        <mxCell id="q6uPWRvDd_Bx__9c443r-33" value="1200" style="edgeLabel;html=1;align=center;verticalAlign=middle;resizable=0;points=[];" parent="q6uPWRvDd_Bx__9c443r-32" vertex="1" connectable="0">
          <mxGeometry x="0.1674" y="2" relative="1" as="geometry">
            <mxPoint x="-10" y="16" as="offset" />
          </mxGeometry>
        </mxCell>
        <mxCell id="q6uPWRvDd_Bx__9c443r-34" value="" style="endArrow=classic;startArrow=classic;html=1;rounded=0;exitX=1;exitY=1;exitDx=0;exitDy=0;entryX=0;entryY=0.5;entryDx=0;entryDy=0;" parent="1" source="q6uPWRvDd_Bx__9c443r-9" target="q6uPWRvDd_Bx__9c443r-7" edge="1">
          <mxGeometry width="50" height="50" relative="1" as="geometry">
            <mxPoint x="430" y="40" as="sourcePoint" />
            <mxPoint x="480" y="-10" as="targetPoint" />
            <Array as="points" />
          </mxGeometry>
        </mxCell>
        <mxCell id="q6uPWRvDd_Bx__9c443r-35" value="500" style="edgeLabel;html=1;align=center;verticalAlign=middle;resizable=0;points=[];" parent="q6uPWRvDd_Bx__9c443r-34" vertex="1" connectable="0">
          <mxGeometry x="-0.3531" y="1" relative="1" as="geometry">
            <mxPoint x="21" y="22" as="offset" />
          </mxGeometry>
        </mxCell>
        <mxCell id="q6uPWRvDd_Bx__9c443r-36" value="" style="endArrow=classic;startArrow=classic;html=1;rounded=0;entryX=0.5;entryY=1;entryDx=0;entryDy=0;" parent="1" source="q6uPWRvDd_Bx__9c443r-2" target="q6uPWRvDd_Bx__9c443r-10" edge="1">
          <mxGeometry width="50" height="50" relative="1" as="geometry">
            <mxPoint x="410" y="40" as="sourcePoint" />
            <mxPoint x="460" y="-10" as="targetPoint" />
          </mxGeometry>
        </mxCell>
        <mxCell id="q6uPWRvDd_Bx__9c443r-37" value="1500" style="edgeLabel;html=1;align=center;verticalAlign=middle;resizable=0;points=[];" parent="q6uPWRvDd_Bx__9c443r-36" vertex="1" connectable="0">
          <mxGeometry x="-0.0821" y="-4" relative="1" as="geometry">
            <mxPoint x="-4" y="-8" as="offset" />
          </mxGeometry>
        </mxCell>
        <mxCell id="q6uPWRvDd_Bx__9c443r-38" value="" style="endArrow=classic;startArrow=classic;html=1;rounded=0;exitX=0;exitY=0;exitDx=0;exitDy=0;entryX=0.5;entryY=1;entryDx=0;entryDy=0;" parent="1" source="q6uPWRvDd_Bx__9c443r-8" target="q6uPWRvDd_Bx__9c443r-9" edge="1">
          <mxGeometry width="50" height="50" relative="1" as="geometry">
            <mxPoint x="280" y="130" as="sourcePoint" />
            <mxPoint x="330" y="80" as="targetPoint" />
          </mxGeometry>
        </mxCell>
        <mxCell id="q6uPWRvDd_Bx__9c443r-39" value="1100" style="edgeLabel;html=1;align=center;verticalAlign=middle;resizable=0;points=[];" parent="q6uPWRvDd_Bx__9c443r-38" vertex="1" connectable="0">
          <mxGeometry x="0.1616" y="1" relative="1" as="geometry">
            <mxPoint as="offset" />
          </mxGeometry>
        </mxCell>
      </root>
    </mxGraphModel>
  </diagram>
</mxfile>
